<?xml version="1.0" standalone="no"?>
<!DOCTYPE svg PUBLIC "-//W3C//DTD SVG 20010904//EN"
 "http://www.w3.org/TR/2001/REC-SVG-20010904/DTD/svg10.dtd">
<svg version="1.0" xmlns="http://www.w3.org/2000/svg"
 width="4021.000000pt" height="2223.000000pt" viewBox="0 0 4021.000000 2223.000000"
 preserveAspectRatio="xMidYMid meet">

<g transform="translate(0.000000,2223.000000) scale(0.100000,-0.100000)"
fill="#3d3d3c" stroke="none">
<path d="M17146 22205 c-22 -8 -55 -27 -75 -42 -20 -15 -945 -752 -2056 -1638
-1111 -886 -2025 -1614 -2032 -1618 -6 -4 -530 210 -1165 474 -1026 428 -1160
482 -1218 486 -42 3 -79 0 -105 -9 -37 -13 -4667 -2629 -4689 -2649 -6 -5 228
-9 540 -9 l549 0 1730 956 c952 526 1761 971 1798 989 91 44 182 59 271 45 50
-8 222 -75 669 -261 331 -138 625 -267 655 -286 60 -40 115 -107 133 -160 7
-21 9 -65 7 -104 -6 -79 -43 -151 -113 -218 -22 -21 -643 -519 -1380 -1106
-737 -587 -1347 -1074 -1355 -1081 -12 -12 56 -14 460 -14 l475 1 3415 2724
c1878 1499 3433 2734 3456 2745 89 44 225 46 306 4 15 -8 1466 -1029 3223
-2269 l3196 -2255 504 7 504 8 -764 539 c-421 297 -765 542 -765 545 1 13
2738 1173 2789 1183 119 22 118 22 897 -388 l712 -374 632 2 632 3 -791 415
c-435 228 -790 417 -791 420 0 3 87 59 192 125 162 101 202 121 260 134 55 12
83 13 131 4 50 -8 354 -151 1520 -714 801 -386 1454 -706 1450 -710 -5 -4
-874 -485 -1933 -1069 -1059 -584 -1929 -1065 -1934 -1071 -6 -5 218 -9 596
-9 l606 0 2211 1219 c1216 671 2227 1225 2248 1230 48 14 157 14 204 1 19 -5
611 -345 1315 -755 l1279 -745 580 0 c571 0 580 1 550 19 -146 91 -3698 2161
-3724 2169 -53 18 -159 15 -207 -7 -23 -11 -287 -154 -587 -320 -300 -166
-550 -301 -556 -301 -6 0 -824 393 -1818 872 l-1808 873 -77 3 c-65 4 -85 0
-130 -21 -29 -13 -262 -155 -517 -316 l-464 -292 -239 126 c-132 69 -260 130
-284 136 -25 7 -69 9 -97 6 -39 -4 -472 -185 -1727 -722 -921 -394 -1682 -717
-1690 -717 -8 -1 -1210 842 -2670 1872 -1460 1031 -2675 1885 -2699 1899 -55
31 -174 39 -235 16z"/>
<path d="M4350 16209 c-1035 -41 -1892 -163 -2510 -358 -606 -191 -994 -410
-1316 -743 -294 -305 -459 -668 -505 -1107 -15 -144 -6 -429 16 -531 59 -266
166 -471 334 -637 311 -309 819 -414 1267 -264 251 83 443 250 550 476 59 125
79 220 78 380 0 152 -15 220 -74 341 -30 62 -56 96 -109 147 -90 85 -153 111
-271 111 -101 1 -110 -3 -260 -115 -202 -149 -321 -196 -478 -187 -145 8 -246
78 -315 220 -65 133 -85 330 -51 496 64 314 348 628 754 836 332 171 669 260
1025 273 174 6 256 -3 353 -39 77 -29 145 -98 167 -169 15 -50 15 -426 9
-4684 l-6 -4630 21 -102 c26 -123 70 -253 119 -348 117 -225 391 -335 835
-335 607 0 906 223 957 714 7 67 14 1638 20 4676 9 4124 11 4582 26 4649 36
170 101 274 219 353 87 58 167 85 296 99 570 62 1061 -478 1233 -1356 51 -258
69 -699 47 -1120 -50 -949 -195 -1459 -494 -1741 -89 -84 -160 -131 -254 -169
l-58 -24 -3 -177 -2 -177 182 6 c433 14 848 136 1226 361 274 163 565 444 741
716 177 274 320 633 385 967 59 304 78 756 42 1042 -85 692 -406 1221 -967
1591 -487 322 -1153 509 -1996 560 -196 11 -925 11 -1233 -1z"/>
<path d="M37840 13529 c-870 -86 -1729 -568 -2258 -1267 -273 -362 -485 -833
-575 -1282 -53 -263 -62 -369 -62 -740 0 -378 10 -494 65 -770 88 -443 270
-852 534 -1205 115 -153 336 -374 491 -491 382 -286 831 -461 1335 -520 115
-13 198 -15 400 -11 357 8 586 43 863 133 296 97 519 203 752 359 193 129 287
206 450 369 124 125 344 376 365 416 5 11 -18 39 -86 103 l-93 88 -83 -72
c-343 -298 -609 -448 -908 -514 -102 -23 -391 -31 -517 -15 -493 61 -956 386
-1265 886 -112 182 -210 401 -268 601 -52 183 -88 439 -64 462 5 5 533 319
1174 696 641 378 1198 710 1238 738 40 28 116 91 168 140 236 223 337 437 338
712 0 173 -29 295 -109 455 -188 376 -640 635 -1250 715 -145 19 -504 27 -635
14z m46 -643 c206 -55 398 -291 503 -619 35 -110 67 -278 79 -416 l8 -94 -50
-32 c-28 -18 -422 -256 -876 -530 -454 -273 -829 -499 -834 -502 -15 -10 20
433 55 687 90 648 240 1059 477 1303 105 108 211 172 332 202 73 18 242 18
306 1z"/>
<path d="M11595 13503 c-744 -60 -1265 -250 -1595 -582 -229 -231 -330 -469
-330 -781 0 -411 203 -713 539 -802 100 -26 270 -29 360 -5 297 79 485 319
468 597 -8 122 -36 192 -106 261 -70 68 -110 92 -293 175 -166 74 -188 94
-188 168 0 126 125 258 341 361 296 139 685 166 976 66 267 -92 481 -336 548
-623 88 -380 -29 -795 -292 -1037 -140 -129 -255 -182 -1068 -491 -426 -162
-591 -238 -837 -387 -410 -246 -690 -570 -814 -938 -52 -157 -75 -308 -81
-541 -13 -467 68 -791 275 -1104 64 -96 194 -231 297 -308 90 -67 255 -151
373 -191 488 -163 1075 -93 1539 184 209 125 448 335 607 535 73 92 86 102 86
72 0 -34 58 -217 95 -297 121 -266 343 -454 639 -539 256 -75 614 -47 896 69
328 134 549 312 809 655 l72 94 -43 36 c-23 19 -56 47 -73 62 l-30 26 -97 -94
c-119 -115 -172 -144 -271 -144 -37 0 -82 6 -100 13 -42 18 -102 86 -119 134
-10 30 -14 417 -18 1898 -5 1694 -7 1869 -23 1960 -53 306 -140 511 -312 730
-354 450 -933 705 -1735 765 -124 9 -400 11 -495 3z m548 -2972 c19 -19 22
-1609 3 -1712 -61 -324 -308 -627 -584 -716 -59 -20 -99 -25 -172 -26 -286 -1
-476 169 -578 518 -75 253 -97 619 -60 975 11 115 27 154 119 302 226 364 523
592 865 663 87 18 388 15 407 -4z"/>
<path d="M23395 13504 c-532 -52 -983 -205 -1335 -452 -182 -128 -403 -335
-540 -507 -242 -304 -450 -737 -555 -1155 -163 -647 -151 -1492 29 -2118 206
-713 600 -1265 1152 -1613 182 -115 450 -235 648 -290 60 -16 61 -17 26 -22
-160 -26 -228 -40 -296 -62 -318 -103 -629 -380 -785 -700 -50 -103 -129 -323
-129 -362 0 -19 13 -26 86 -50 86 -28 87 -28 100 -8 133 191 220 249 412 276
140 20 399 -13 647 -83 199 -55 583 -205 920 -359 218 -99 797 -392 1155 -584
1130 -605 1918 -930 2450 -1012 157 -24 458 -23 589 1 203 37 411 123 564 234
102 74 259 236 330 344 144 216 260 557 283 831 l7 75 -51 11 c-125 26 -128
26 -140 -8 -6 -17 -31 -62 -55 -99 -88 -136 -220 -210 -445 -247 -127 -21
-437 -17 -577 9 -471 85 -1097 315 -2040 748 -737 339 -1437 647 -1745 768
-151 59 -475 170 -498 170 -9 0 -13 2 -11 4 2 3 76 10 164 15 430 29 813 141
1160 340 362 208 692 533 922 908 246 402 409 871 473 1367 91 700 18 1433
-197 1971 -379 951 -1101 1509 -2124 1640 -117 15 -507 28 -594 19z m422 -633
c297 -106 496 -458 597 -1058 62 -368 81 -696 81 -1378 0 -692 -21 -1033 -85
-1420 -65 -392 -152 -650 -288 -855 -131 -197 -279 -286 -492 -297 -241 -12
-416 83 -565 306 -127 190 -205 411 -269 761 -105 572 -125 1869 -40 2635 73
659 274 1122 552 1268 109 58 157 67 312 63 108 -3 148 -8 197 -25z"/>
<path d="M28711 13498 c-253 -28 -548 -147 -782 -315 -167 -119 -353 -307
-501 -506 l-39 -52 43 -35 c23 -19 56 -47 73 -62 l30 -26 97 94 c119 115 172
144 271 144 109 0 163 -35 209 -135 l23 -50 6 -2010 c5 -1806 7 -2020 22
-2112 31 -193 92 -394 157 -524 109 -216 297 -408 506 -516 150 -78 297 -117
507 -134 407 -33 825 108 1317 442 248 168 548 421 716 604 l74 80 0 -183 c0
-203 12 -286 61 -413 91 -237 319 -417 626 -495 266 -67 620 -49 888 46 252
90 466 222 676 419 101 93 324 363 317 381 -2 4 -32 32 -67 63 l-64 56 -95
-89 c-114 -106 -172 -140 -252 -147 -119 -11 -198 37 -242 146 l-23 56 -5
2290 -5 2290 -28 90 c-46 145 -89 217 -197 325 -113 113 -200 166 -364 222
-153 52 -313 72 -511 65 -184 -7 -295 -26 -448 -77 -279 -93 -525 -249 -744
-472 -87 -89 -273 -313 -273 -329 0 -5 31 -34 70 -67 l70 -59 89 88 c119 116
162 141 257 147 129 8 188 -29 237 -150 l22 -53 3 -1542 2 -1542 -76 -91
c-193 -230 -423 -445 -613 -572 -207 -138 -346 -191 -506 -191 -104 0 -166 16
-242 63 l-33 20 0 1993 c0 1309 -4 2022 -10 2077 -14 112 -33 178 -80 275 -78
160 -194 272 -375 361 -217 107 -492 146 -794 112z"/>
<path d="M16850 13469 c-246 -28 -539 -117 -781 -239 -191 -95 -500 -301 -499
-332 1 -7 18 -33 39 -57 l39 -44 73 46 c102 63 170 81 281 75 146 -9 233 -67
294 -196 56 -119 54 10 54 -2534 0 -2488 -1 -2424 45 -2534 60 -143 255 -283
466 -334 183 -43 481 -50 687 -14 303 52 502 202 554 419 9 38 13 540 15 2029
3 1510 6 1983 15 1994 31 36 358 290 473 367 221 146 474 264 647 299 181 37
411 13 526 -57 95 -56 194 -188 227 -301 l12 -41 65 -3 65 -3 46 158 c80 273
102 431 94 671 -7 229 -46 345 -153 461 -69 75 -133 116 -232 149 -69 23 -93
26 -222 26 -132 0 -153 -3 -230 -28 -105 -35 -241 -103 -337 -168 -279 -188
-624 -559 -899 -967 -48 -72 -89 -130 -90 -128 -1 1 -7 97 -13 212 -12 246
-36 367 -104 534 -54 134 -101 206 -192 297 -133 132 -319 216 -539 244 -94
12 -318 11 -426 -1z"/>
<path d="M35999 3573 l-87 -15 -6 -51 c-11 -79 -30 -116 -71 -133 -45 -18 -66
-13 -180 51 l-90 50 -95 0 c-83 0 -101 -4 -145 -27 -93 -49 -137 -118 -155
-245 -12 -85 -4 -143 19 -142 9 0 49 6 90 12 l75 12 13 70 c10 56 18 75 43 98
45 40 89 37 175 -14 39 -22 99 -50 134 -62 56 -18 71 -19 129 -9 126 21 205
86 237 194 15 53 21 229 8 227 -5 -1 -47 -8 -94 -16z"/>
<path d="M3075 3438 c-3 -10 -295 -1539 -320 -1679 l-7 -36 142 -27 c78 -15
144 -26 145 -24 2 2 29 142 61 311 32 169 61 312 65 318 4 7 81 -4 230 -31
258 -49 388 -56 499 -26 213 57 347 210 386 439 14 81 14 110 5 174 -30 199
-173 359 -387 433 -45 16 -773 160 -808 160 -3 0 -9 -6 -11 -12z m455 -317
c241 -46 302 -67 368 -126 61 -55 84 -109 85 -195 0 -133 -55 -242 -147 -289
-81 -42 -178 -41 -422 4 -163 31 -204 42 -204 54 0 16 98 556 105 579 3 6 6
12 7 12 2 0 95 -18 208 -39z"/>
<path d="M37825 3298 c-88 -16 -162 -31 -164 -34 -2 -2 -24 -106 -48 -231 -24
-126 -105 -538 -180 -916 -74 -378 -133 -690 -130 -693 9 -9 271 37 283 49 6
7 30 115 53 242 23 126 44 231 46 233 2 2 171 34 375 71 l371 67 125 -208 c85
-142 131 -208 142 -208 19 0 285 50 290 54 1 2 -96 160 -216 352 -120 192
-343 553 -496 802 -153 248 -281 452 -284 451 -4 0 -79 -14 -167 -31z m471
-995 c-8 -8 -538 -104 -556 -101 -13 3 -4 67 57 423 40 231 72 422 73 425 0 2
97 -164 216 -369 119 -205 213 -375 210 -378z"/>
<path d="M5150 2752 c-96 -163 -311 -526 -478 -806 -207 -347 -300 -511 -292
-516 24 -15 282 -52 289 -42 3 6 58 101 121 211 69 120 121 200 130 200 22 0
731 -117 736 -121 2 -2 24 -105 49 -229 25 -123 49 -231 54 -239 5 -10 54 -21
152 -36 79 -13 146 -21 148 -18 2 2 -4 39 -13 81 -50 226 -225 1037 -296 1372
-44 212 -82 386 -83 386 -3 2 -331 55 -337 55 -3 0 -84 -134 -180 -298z m384
-396 c42 -225 76 -414 76 -421 0 -8 -86 3 -286 36 -157 26 -287 49 -289 51 -2
2 87 163 197 358 109 195 204 363 209 373 6 10 12 17 14 15 2 -2 38 -187 79
-412z"/>
<path d="M36265 3028 c-60 -10 -110 -20 -112 -21 -4 -5 185 -1147 211 -1272
13 -66 23 -121 22 -122 -1 -2 -52 59 -112 134 -60 76 -188 228 -284 338 -97
110 -289 332 -428 493 -139 160 -258 292 -265 292 -27 1 -327 -45 -327 -50 0
-14 260 -1733 262 -1735 3 -3 262 35 264 39 3 4 -178 1159 -199 1269 -13 70
-23 127 -21 127 1 0 51 -62 110 -137 59 -76 193 -237 298 -358 203 -233 627
-717 656 -748 17 -18 22 -18 186 9 93 15 171 28 172 30 2 1 -61 392 -139 868
-136 821 -144 866 -164 865 -11 -1 -69 -10 -130 -21z"/>
<path d="M6786 1934 c-70 -476 -126 -867 -123 -870 5 -5 240 -44 268 -44 13 0
24 58 63 338 27 185 52 341 56 346 7 7 213 -17 349 -41 31 -5 37 -13 76 -97
141 -303 308 -652 315 -660 11 -11 330 -55 330 -46 0 4 -86 182 -190 395 -105
214 -189 394 -186 402 3 7 16 13 29 13 33 0 127 34 188 66 210 115 292 431
173 667 -58 114 -207 223 -364 266 -56 16 -804 131 -848 131 -4 0 -65 -389
-136 -866z m621 551 c250 -36 323 -55 391 -104 77 -56 108 -172 78 -291 -23
-89 -59 -139 -126 -173 -86 -43 -148 -43 -423 -4 -131 19 -240 37 -242 39 -3
3 77 568 81 568 1 0 109 -16 241 -35z"/>
<path d="M33529 2620 c-70 -10 -132 -19 -139 -22 -7 -2 -63 -215 -135 -513
-68 -281 -168 -691 -223 -912 -93 -381 -98 -403 -78 -403 28 0 270 31 275 36
2 2 28 108 58 236 29 128 56 234 59 237 5 5 694 100 730 101 18 0 41 -36 134
-207 61 -115 115 -211 118 -215 4 -4 75 3 159 15 l152 22 -115 205 c-147 260
-581 1041 -705 1267 l-94 173 -35 -1 c-19 -1 -92 -9 -161 -19z m282 -689 c93
-178 168 -325 167 -327 -8 -7 -568 -77 -574 -72 -5 6 156 781 173 828 3 9 16
-7 35 -45 17 -33 107 -206 199 -384z"/>
<path d="M32310 2464 c-163 -21 -868 -103 -1160 -135 l-106 -11 13 -112 c6
-61 12 -116 13 -122 0 -7 103 1 301 23 166 19 303 32 305 30 2 -2 42 -338 89
-747 46 -408 87 -745 90 -748 6 -7 274 23 282 31 3 4 -33 336 -81 739 -47 403
-86 740 -86 748 0 13 50 22 290 50 159 18 295 37 301 41 9 5 8 36 -1 123 -13
115 -13 116 -39 115 -14 -1 -109 -12 -211 -25z"/>
<path d="M9387 2358 c-312 -588 -504 -946 -655 -1223 -99 -181 -177 -332 -175
-334 7 -9 288 -40 294 -33 4 4 57 101 118 217 85 163 114 210 128 208 10 -1
173 -21 363 -43 190 -22 351 -41 358 -43 9 -1 34 -83 72 -235 31 -128 60 -235
63 -239 4 -3 74 -13 157 -22 135 -15 150 -16 146 -2 -24 81 -308 1173 -407
1561 -34 135 -63 246 -64 248 -2 2 -311 42 -332 42 -6 0 -36 -46 -66 -102z
m294 -593 c56 -243 91 -415 85 -415 -20 -1 -551 62 -564 66 -9 3 46 122 180
384 106 209 195 380 198 380 3 0 49 -187 101 -415z"/>
<path d="M11039 2278 c-3 -6 -185 -1743 -183 -1746 1 -1 156 -19 345 -38 503
-52 645 -42 849 58 68 34 103 60 176 133 79 77 98 103 137 185 83 171 112 330
104 553 -6 169 -22 237 -85 367 -38 80 -60 109 -132 180 -71 72 -102 94 -190
138 -153 77 -237 94 -652 136 -377 38 -367 37 -369 34z m471 -288 c221 -23
288 -37 379 -81 121 -59 225 -196 259 -339 43 -178 14 -428 -68 -590 -55 -109
-165 -207 -274 -244 -107 -36 -186 -40 -415 -17 -118 12 -216 23 -217 24 -1 1
26 286 62 632 35 347 64 631 64 633 0 4 6 3 210 -18z"/>
<path d="M30260 2238 c-47 -5 -86 -11 -88 -13 -6 -5 108 -1140 128 -1275 10
-69 16 -127 15 -128 -2 -2 -39 47 -82 109 -43 62 -130 181 -193 265 -245 324
-696 918 -710 935 -14 18 -22 18 -180 3 -91 -9 -166 -17 -168 -19 -3 -3 147
-1747 150 -1750 6 -4 257 20 261 25 6 7 -87 1064 -111 1253 -10 81 -16 147
-13 147 3 -1 49 -64 101 -142 93 -138 338 -464 707 -940 119 -154 191 -238
202 -238 31 0 325 31 328 34 2 2 -36 395 -84 875 l-88 871 -45 -1 c-25 -1 -83
-6 -130 -11z"/>
<path d="M13720 2036 c-289 -61 -493 -246 -589 -532 -50 -148 -64 -255 -58
-444 5 -181 26 -279 86 -398 149 -294 465 -449 861 -421 117 8 198 31 310 86
80 39 109 60 182 134 77 78 94 102 142 201 63 130 91 236 106 398 21 221 -12
407 -103 585 -62 121 -190 245 -317 308 -133 65 -232 88 -410 92 -99 3 -166 0
-210 -9z m345 -251 c202 -52 336 -201 381 -425 22 -110 15 -317 -15 -439 -76
-304 -300 -468 -589 -432 -235 30 -385 164 -449 401 -29 105 -23 346 10 472
60 226 189 374 368 422 72 20 220 20 294 1z"/>
<path d="M27372 2020 c-349 -49 -593 -258 -682 -585 -32 -113 -39 -364 -16
-505 63 -374 276 -621 601 -693 221 -50 450 -24 654 75 91 44 116 62 191 137
139 139 209 298 230 521 27 289 -49 584 -199 773 -98 123 -251 221 -411 261
-77 20 -279 28 -368 16z m250 -251 c278 -58 447 -357 425 -753 -16 -278 -140
-460 -362 -529 -102 -31 -264 -31 -358 1 -167 58 -286 204 -339 419 -30 119
-32 374 -4 473 56 201 197 346 379 385 77 17 189 18 259 4z"/>
<path d="M15516 1888 c-7 -46 -99 -1719 -94 -1723 1 -1 66 -6 144 -10 l141 -7
6 88 c3 49 12 203 18 341 7 139 16 258 19 264 5 7 61 7 195 0 104 -6 189 -12
190 -13 1 -2 96 -164 211 -360 193 -330 211 -358 239 -362 17 -3 94 -7 172
-10 l142 -6 -63 103 c-201 327 -398 659 -393 664 3 3 36 16 72 28 167 59 280
182 314 343 15 72 14 206 -3 267 -51 192 -204 322 -436 371 -51 10 -730 54
-847 54 -17 0 -23 -7 -27 -32z m704 -248 c115 -11 152 -21 212 -59 67 -42 100
-104 106 -196 9 -139 -31 -227 -129 -280 -49 -26 -64 -29 -169 -33 -113 -4
-467 12 -477 21 -4 5 10 305 23 486 l6 84 167 -8 c91 -3 209 -11 261 -15z"/>
<path d="M25603 1891 c-61 -3 -113 -8 -115 -11 -10 -12 -323 -1075 -368 -1249
-28 -107 -52 -197 -55 -199 -5 -6 0 -21 -75 198 -33 96 -154 408 -268 693
l-206 518 -211 -7 c-115 -3 -212 -8 -214 -10 -4 -4 48 -1605 55 -1691 l6 -63
135 0 135 0 -6 123 c-4 67 -13 306 -22 532 -8 226 -23 507 -33 625 -10 118
-18 216 -16 218 1 1 35 -77 75 -175 89 -220 411 -1005 478 -1168 l50 -120 120
0 c66 0 123 3 126 6 6 6 202 626 366 1161 57 185 108 334 112 332 4 -3 8 -123
8 -267 0 -217 43 -1194 52 -1202 6 -6 247 8 257 15 8 4 -1 241 -34 851 -25
464 -45 856 -45 872 l0 27 -97 -2 c-54 -1 -148 -4 -210 -7z"/>
<path d="M18745 1785 c-3 -8 -21 -845 -37 -1675 l-1 -75 344 -8 c477 -12 600
3 789 96 69 33 102 59 176 132 157 156 221 322 231 596 8 223 -21 372 -103
532 -49 92 -182 229 -274 280 -84 47 -224 93 -325 107 -108 15 -797 28 -800
15z m655 -250 c163 -6 271 -47 366 -137 104 -98 154 -211 175 -391 13 -120 1
-267 -31 -371 -41 -131 -141 -254 -252 -308 -108 -53 -162 -61 -417 -59 -129
1 -236 3 -237 4 -1 1 22 1176 25 1259 1 17 26 18 371 3z"/>
<path d="M21328 1773 l-368 -3 0 -880 0 -880 353 0 c193 0 497 3 675 7 l323 6
-3 120 -3 119 -527 -1 -528 -2 0 260 0 261 358 0 c196 0 374 3 395 6 l38 7 -3
115 -3 115 -392 -2 -393 -3 0 256 0 256 448 0 c246 0 471 3 500 6 l52 7 0 118
0 119 -277 -2 c-153 -2 -443 -4 -645 -5z"/>
</g>
</svg>
