<?xml version="1.0" encoding="UTF-8" standalone="no"?>
<!DOCTYPE svg PUBLIC "-//W3C//DTD SVG 1.1//EN" "http://www.w3.org/Graphics/SVG/1.1/DTD/svg11.dtd">
<svg width="100%" height="100%" viewBox="0 0 200 40" version="1.1" xmlns="http://www.w3.org/2000/svg" xmlns:xlink="http://www.w3.org/1999/xlink" xml:space="preserve" xmlns:serif="http://www.serif.com/" style="fill-rule:evenodd;clip-rule:evenodd;stroke-linejoin:round;stroke-miterlimit:2;">
    <g transform="matrix(0.0916079,0,0,0.0916079,-67.073,-92.8044)">
        <g transform="matrix(0.592694,0,0,0.592694,1049.03,-1144.53)">
            <g transform="matrix(7.90589,0,0,7.90589,-4646.46,-10332.2)">
                <path d="M674.32,1831.77L666.831,1831.77L666.831,1829.55C665.648,1831.08 662.034,1832.47 659.22,1832.47C655.523,1832.47 652.42,1830.97 650.97,1827.97C650.028,1826.01 650.117,1822.54 651.22,1820.52C653.162,1817.04 657.64,1815.61 663.97,1814.72L666.82,1814.32L666.82,1812.12C666.82,1811.12 666.47,1810.4 665.77,1809.97C665.07,1809.5 664.187,1809.27 663.12,1809.27C661.854,1809.27 660.904,1809.53 660.27,1810.07C659.637,1810.57 659.22,1811.48 659.02,1812.82L651.52,1812.82C651.587,1810.92 652.02,1809.42 652.82,1808.32C654.511,1806.02 656.838,1804.98 659.27,1804.72C660.504,1804.55 661.57,1804.47 662.47,1804.47C664.27,1804.47 665.904,1804.58 667.37,1804.82C670.304,1805.28 672.404,1806.47 673.47,1808.47C674.037,1809.43 674.32,1810.67 674.32,1812.17L674.32,1831.77ZM666.82,1818.82L661.57,1820.32C660.604,1820.58 659.752,1820.99 658.97,1821.47C657.41,1822.42 657.741,1824.61 658.205,1825.34C658.786,1826.26 660.065,1826.77 661.47,1826.77C663.004,1826.77 664.27,1826.27 665.27,1825.27C666.304,1824.23 666.82,1822.7 666.82,1820.67L666.82,1818.82Z" style="fill:white;fill-rule:nonzero;"/>
            </g>
            <g transform="matrix(7.90589,0,0,7.90589,-2975.85,-10332.2)">
                <path d="M674.32,1831.77L666.831,1831.77L666.831,1829.55C665.648,1831.08 662.034,1832.47 659.22,1832.47C655.523,1832.47 652.42,1830.97 650.97,1827.97C650.028,1826.01 650.117,1822.54 651.22,1820.52C653.162,1817.04 657.64,1815.61 663.97,1814.72L666.82,1814.32L666.82,1812.12C666.82,1811.12 666.47,1810.4 665.77,1809.97C665.07,1809.5 664.187,1809.27 663.12,1809.27C661.854,1809.27 660.904,1809.53 660.27,1810.07C659.637,1810.57 659.22,1811.48 659.02,1812.82L651.52,1812.82C651.587,1810.92 652.02,1809.42 652.82,1808.32C654.511,1806.02 656.838,1804.98 659.27,1804.72C660.504,1804.55 661.57,1804.47 662.47,1804.47C664.27,1804.47 665.904,1804.58 667.37,1804.82C670.304,1805.28 672.404,1806.47 673.47,1808.47C674.037,1809.43 674.32,1810.67 674.32,1812.17L674.32,1831.77ZM666.82,1818.82L661.57,1820.32C660.604,1820.58 659.752,1820.99 658.97,1821.47C657.41,1822.42 657.741,1824.61 658.205,1825.34C658.786,1826.26 660.065,1826.77 661.47,1826.77C663.004,1826.77 664.27,1826.27 665.27,1825.27C666.304,1824.23 666.82,1822.7 666.82,1820.67L666.82,1818.82Z" style="fill:white;fill-rule:nonzero;"/>
            </g>
            <g transform="matrix(7.90589,0,0,7.90589,-4648.46,-10332.2)">
                <path d="M695.97,1817.92C695.97,1815.52 695.57,1813.63 694.77,1812.27C693.97,1810.87 692.554,1810.17 690.52,1810.17C688.654,1810.17 687.287,1810.92 686.42,1812.42C685.587,1813.88 685.17,1815.9 685.17,1818.47C685.17,1821.35 685.562,1823.51 686.678,1824.98C687.498,1826.07 688.496,1826.77 690.52,1826.77C692.545,1826.77 693.914,1825.78 694.77,1824.27C695.651,1822.64 695.97,1820.41 695.97,1817.92ZM703.77,1831.77L696.27,1831.77L696.27,1829.17C696.27,1829.17 694.349,1832.47 689.02,1832.47C685.82,1832.47 682.954,1831.42 680.82,1829.22C679.787,1828.08 678.954,1826.65 678.32,1824.92C677.72,1823.15 677.404,1821.07 677.37,1818.67C677.337,1816.03 677.664,1813.82 678.32,1812.02C679.335,1809.23 680.706,1807.52 682.479,1806.29C684.179,1805.11 686.687,1804.47 688.67,1804.47C690.267,1804.47 692.268,1804.72 694.17,1805.82C694.804,1806.18 695.404,1806.67 695.97,1807.27L695.97,1796.17L703.77,1796.17L703.77,1831.77Z" style="fill:white;fill-rule:nonzero;"/>
            </g>
            <g transform="matrix(7.90589,0,0,7.90589,-4654.46,-10332.2)">
                <path d="M708.52,1805.17L716.32,1805.17L716.32,1807.52C718.316,1805.18 721.693,1804.47 724.02,1804.47C727.124,1804.47 729.358,1805.71 731.07,1808.02C733.674,1805.34 736.596,1804.47 739.62,1804.47C740.722,1804.47 743.885,1804.59 745.883,1806.59C746.982,1807.69 747.82,1809.02 747.82,1811.47L747.82,1831.77L740.02,1831.77L740.02,1816.22C740.02,1812.46 739.057,1810.77 736.02,1810.77C733.42,1810.77 732.07,1812.68 732.07,1815.42L732.07,1831.77L724.27,1831.77C724.27,1831.77 724.27,1831.77 724.27,1815.12C724.27,1813.82 724.008,1812.86 723.584,1812.13C723.006,1811.14 721.969,1810.77 720.47,1810.77C719.575,1810.77 718.792,1810.89 718.02,1811.34C717.101,1811.88 716.32,1813.4 716.32,1815.22C716.32,1831.77 716.32,1831.77 716.32,1831.77L708.52,1831.77L708.52,1805.17Z" style="fill:white;fill-rule:nonzero;"/>
            </g>
            <g transform="matrix(7.90589,0,0,7.90589,-4661.46,-10332.2)">
                <path d="M752.57,1802.17L752.57,1796.17L760.37,1796.17L760.37,1802.17L752.57,1802.17ZM760.37,1805.17L760.37,1831.77L752.57,1831.77L752.57,1805.17L760.37,1805.17Z" style="fill:white;fill-rule:nonzero;"/>
            </g>
            <g transform="matrix(7.90589,0,0,7.90589,-4668.46,-10332.2)">
                <path d="M765.12,1805.17L772.92,1805.17L772.92,1807.52C774.827,1805.23 778.228,1804.47 780.62,1804.47C782.187,1804.47 783.487,1804.68 784.52,1805.12C786.583,1805.91 787.842,1807.55 788.27,1809.27C788.498,1810.18 788.67,1811.12 788.67,1812.12L788.67,1831.77L780.87,1831.77L780.87,1815.12C780.87,1812.5 780.052,1810.77 777.07,1810.77C773.992,1810.77 772.92,1812.77 772.92,1815.22L772.92,1831.77L765.12,1831.77L765.12,1805.17Z" style="fill:white;fill-rule:nonzero;"/>
            </g>
            <g transform="matrix(7.90589,0,0,7.90589,-4679.46,-10332.2)">
                <path d="M793.42,1802.17L793.42,1796.17L801.22,1796.17L801.22,1802.17L793.42,1802.17ZM801.22,1805.17L801.22,1831.77L793.42,1831.77L793.42,1805.17L801.22,1805.17Z" style="fill:white;fill-rule:nonzero;"/>
            </g>
            <g transform="matrix(7.90589,0,0,7.90589,-4677.46,-10332.2)">
                <path d="M823.22,1813.02C822.427,1812.09 821.191,1811.43 819.87,1810.92C818.079,1810.22 815.132,1809.75 813.47,1810.72C812.808,1811.1 812.52,1811.55 812.52,1812.22C812.52,1812.98 812.904,1813.55 813.67,1813.92C816.128,1815.04 820.827,1815.24 824.17,1816.77C826.542,1817.85 828.27,1819.68 828.27,1822.97C828.27,1824.73 827.92,1826.22 827.22,1827.42C826.52,1828.62 825.587,1829.6 824.42,1830.37C822.154,1831.83 819.137,1832.47 816.27,1832.47C810.496,1832.47 807.185,1830.86 803.27,1827.22L808.12,1823.02C809.32,1824.18 810.57,1825.1 811.87,1825.77C813.17,1826.43 814.72,1826.77 816.52,1826.77C818.32,1826.77 819.527,1826.34 820.27,1825.52C820.602,1825.15 820.77,1824.67 820.77,1824.07C820.77,1823.37 820.365,1822.86 819.57,1822.52C816.784,1821.31 812.712,1821.36 809.12,1819.72C806.819,1818.66 805.02,1816.94 805.02,1813.77C805.02,1810.41 806.5,1808.07 808.62,1806.62C810.754,1805.08 813.537,1804.47 816.27,1804.47C818.337,1804.47 820.354,1804.82 822.32,1805.52C824.32,1806.18 826.22,1807.12 828.02,1808.32L823.22,1813.02Z" style="fill:white;fill-rule:nonzero;"/>
            </g>
            <g transform="matrix(7.90589,0,0,7.90589,-4665.46,-10332.2)">
                <path d="M844.67,1811.19L840.02,1811.19L840.02,1823.52C840.02,1824.58 840.254,1825.3 840.72,1825.67C841.187,1826 841.77,1826.17 842.47,1826.17C843.337,1826.17 844.42,1826.08 844.82,1826.02L844.82,1832.17C843.832,1832.3 841.575,1832.47 839.82,1832.47C838.154,1832.47 836.82,1832.23 835.82,1831.77C834.82,1831.3 834.054,1830.68 833.52,1829.92C832.436,1828.36 832.22,1826.37 832.22,1824.47L832.22,1811.19L828.42,1811.19L828.42,1805.19L832.22,1805.19L832.22,1796.17L840.02,1796.17L840.02,1805.19L844.67,1805.19L844.67,1811.19Z" style="fill:white;fill-rule:nonzero;"/>
            </g>
            <g transform="matrix(7.90589,0,0,7.90589,-4657.46,-10332.2)">
                <path d="M846.87,1805.17L854.67,1805.17L854.67,1807.87C856.411,1806.26 859.182,1805.27 861.97,1805.07L862.02,1811.97L861.17,1812.07C858.837,1812.33 857.17,1812.75 856.17,1813.32C855.17,1813.88 854.67,1814.9 854.67,1816.37L854.67,1831.77L846.87,1831.77L846.87,1805.17Z" style="fill:white;fill-rule:nonzero;"/>
            </g>
            <g transform="matrix(7.90589,0,0,7.90589,-4663.46,-10332.2)">
                <path d="M891.42,1796.17L900.42,1796.17C900.42,1796.17 913.47,1818.92 913.47,1818.92L913.47,1796.17L921.57,1796.17L921.57,1831.77L912.67,1831.77C912.67,1831.77 899.52,1809.37 899.52,1809.37L899.52,1831.77L891.42,1831.77L891.42,1796.17Z" style="fill:white;fill-rule:nonzero;"/>
            </g>
            <g transform="matrix(7.90589,0,0,7.90589,-4671.46,-10332.2)">
                <path d="M926.22,1831.77L926.22,1796.17L953.72,1796.17L953.72,1803.07L935.12,1803.07L935.12,1809.57L946.869,1809.57L946.869,1816.47L935.12,1816.47L935.12,1824.87L953.72,1824.87L953.72,1831.77L926.22,1831.77Z" style="fill:white;fill-rule:nonzero;"/>
            </g>
            <g transform="matrix(7.90589,0,0,7.90589,-4648.88,-10332.2)">
                <path d="M953.52,1796.17L981.02,1796.17L981.02,1803.07L971.72,1803.07L971.72,1831.77L962.82,1831.77L962.82,1803.07L953.52,1803.07L953.52,1796.17Z" style="fill:white;fill-rule:nonzero;"/>
            </g>
        </g>
        <g id="Signo" transform="matrix(0.25,0,0,0.25,567.309,965.204)">
            <g transform="matrix(2,0,0,1.6,-907.637,-668.617)">
                <path d="M1083.33,1500L1083.33,875L1000,875L1000,1500L833.333,1500L833.333,666.667L1250,666.667L1250,1291.67L1500,1291.67L1500,1500L1083.33,1500Z" style="fill:white;"/>
            </g>
            <g transform="matrix(2,0,0,1.6,592.363,-668.617)">
                <path d="M833.333,875L583.333,875L583.333,666.667L1000,666.667L1000,1500L833.333,1500L833.333,875Z" style="fill:white;"/>
            </g>
            <g transform="matrix(0.4,0,0,1,1455.42,500)">
                <rect x="759.03" y="398.05" width="833.333" height="333.333" style="fill:white;"/>
            </g>
        </g>
    </g>
</svg>
