<?xml version="1.0" encoding="UTF-8" standalone="no"?>
<svg
   xmlns:dc="http://purl.org/dc/elements/1.1/"
   xmlns:cc="http://creativecommons.org/ns#"
   xmlns:rdf="http://www.w3.org/1999/02/22-rdf-syntax-ns#"
   xmlns:svg="http://www.w3.org/2000/svg"
   xmlns="http://www.w3.org/2000/svg"
   id="svg8"
   version="1.1"
   viewBox="0 0 184.80672 46.684338"
   height="46.684338mm"
   width="184.80672mm">
  <defs
     id="defs2">
    <clipPath
       clipPathUnits="userSpaceOnUse"
       id="clipPath831">
      <path
         d="M 0,383 H 548 V 0 H 0 Z"
         id="path829" />
    </clipPath>
  </defs>
  <metadata
     id="metadata5">
    <rdf:RDF>
      <cc:Work
         rdf:about="">
        <dc:format>image/svg+xml</dc:format>
        <dc:type
           rdf:resource="http://purl.org/dc/dcmitype/StillImage" />
        <dc:title></dc:title>
      </cc:Work>
    </rdf:RDF>
  </metadata>
  <g
     transform="translate(-14.563902,-127.13732)"
     id="layer1">
    <g
       style="stroke-width:0.44369164"
       id="g823"
       transform="matrix(0.79509673,0,0,-0.79509673,-111.99244,302.74055)">
      <g
         style="stroke-width:0.44369164"
         id="g825">
        <g
           style="stroke-width:0.44369164"
           id="g827"
           clip-path="url(#clipPath831)">
          <g
             style="stroke-width:0.44369164"
             id="g833"
             transform="translate(327.613,183.6744)">
            <path
               d="m 0,0 -1.889,3.708 c -2.416,-5.026 -5.068,-9.625 -9.013,-13.133 -6.657,-5.919 -15.457,-5.919 -25.647,-5.919 h -6.008 c -1.635,0 -2.966,1.331 -2.966,2.966 v 35.272 c 0,1.552 -1.258,2.81 -2.81,2.81 -1.553,0 -2.811,-1.258 -2.811,-2.81 v -35.272 c 0,-4.735 3.853,-8.587 8.587,-8.587 h 6.008 c 10.865,0 21.128,0 29.381,7.339 3.585,3.187 6.214,7.052 8.432,11.144 C 0.854,-1.714 0.446,-0.923 0.04,-0.104 0.026,-0.075 0.014,-0.033 0,0 m 58.369,7.657 c 0,-9.279 -5.336,-17.541 -14.274,-21.4 -9.295,-4.014 -19.802,-2.365 -26.768,4.199 -3.361,3.167 -6.253,7.74 -9.101,13.492 -0.658,1.33 -1.301,2.714 -1.928,4.091 0.627,1.374 1.271,2.754 1.929,4.083 2.846,5.752 5.738,9.906 9.1,13.073 6.967,6.564 17.474,8.212 26.768,4.199 C 53.033,25.536 58.369,17.692 58.369,8.413 Z M 46.323,34.555 C 34.966,39.458 22.073,37.389 13.472,29.286 9.629,25.664 6.374,21.031 3.237,14.712 c -2.631,5.501 -5.69,10.612 -10.418,14.763 -8.483,7.45 -20.962,7.45 -31.973,7.45 L -61.37,36.923 c -5.424,0 -9.837,-4.413 -9.837,-9.837 V 4.931 c 0,-13.635 -6.974,-20.842 -20.167,-20.842 -12.999,0 -19.869,7.078 -19.869,20.468 v 22.532 c 0,5.424 -4.413,9.836 -9.837,9.836 h -37.525 c -5.424,0 -9.837,-4.412 -9.837,-9.836 v -9.673 c 0,-3.312 0.915,-6.415 2.506,-9.069 -1.59,-2.634 -2.506,-5.719 -2.506,-9.014 v -17.487 c 0,-1.553 1.259,-2.811 2.811,-2.811 1.552,0 2.811,1.258 2.811,2.811 v 17.487 c 0,1.559 0.301,3.049 0.85,4.414 l 0.009,0.001 c 0.716,1.779 1.85,3.343 3.28,4.575 -0.002,0.002 -0.005,0.004 -0.007,0.006 2.08,1.792 4.785,2.877 7.739,2.877 h 12.189 c 1.616,0 2.931,-1.315 2.931,-2.931 0,-1.616 -1.315,-2.931 -2.931,-2.931 h -11.988 c -1.69,0 -3.299,0.355 -4.76,0.986 -1.625,-1.064 -2.862,-2.677 -3.438,-4.573 2.454,-1.29 5.238,-2.034 8.198,-2.034 h 11.988 c 4.716,0 8.552,3.836 8.552,8.552 0,4.715 -3.836,8.551 -8.552,8.551 h -12.189 c -4.166,0 -7.997,-1.463 -11.005,-3.904 -0.558,1.39 -0.866,2.907 -0.866,4.494 v 9.673 c 0,2.324 1.89,4.216 4.215,4.216 h 37.525 c 2.325,0 4.215,-1.892 4.215,-4.216 V 4.557 c 0,-16.58 9.291,-26.089 25.491,-26.089 16.389,0 25.789,9.645 25.789,26.463 v 22.155 c 0,2.325 1.891,4.216 4.215,4.216 h 10.809 c 0.009,0 0.018,0.003 0.018,0.003 h 11.389 c 10.507,0 21.372,0 28.265,-6.053 C -6.048,21 -3.172,15.306 -0.29,8.958 V 8.959 L 3.853,0.166 c 2.949,-5.707 6.026,-10.415 9.619,-13.801 5.501,-5.183 12.759,-7.897 20.248,-7.897 4.218,0 8.511,0.862 12.603,2.628 10.898,4.705 17.668,15.141 17.668,26.561 v 0.756 c 0,11.42 -6.77,21.437 -17.668,26.142"
               style="fill:#ff5023;fill-opacity:1;fill-rule:nonzero;stroke:none;stroke-width:0.44369164"
               id="path835" />
          </g>
        </g>
      </g>
    </g>
  </g>
</svg>
