<svg xmlns="http://www.w3.org/2000/svg" xmlns:xlink="http://www.w3.org/1999/xlink" viewBox="0 0 407.1 122.55"><defs><style>.cls-1{fill:none;}.cls-2{fill:#f80;}.cls-3{fill:#fff;}.cls-4{fill:url(#Degradado_sin_nombre_4);}.cls-5{clip-path:url(#clip-path);}.cls-6{fill:url(#Degradado_sin_nombre_10);}.cls-7{clip-path:url(#clip-path-2);}.cls-8{fill:url(#Degradado_sin_nombre_9);}.cls-9{fill:url(#Degradado_sin_nombre_9-2);}.cls-10{fill:url(#Degradado_sin_nombre_7);}.cls-11{fill:url(#Degradado_sin_nombre_4-2);}.cls-12{fill:url(#Degradado_sin_nombre_7-2);}</style><linearGradient id="Degradado_sin_nombre_4" x1="-2874.36" y1="113.68" x2="-2873.8" y2="113.68" gradientTransform="matrix(194.13, 0, 0, -194.13, 558011.83, 22130.23)" gradientUnits="userSpaceOnUse"><stop offset="0" stop-color="#f6a316"></stop><stop offset="1" stop-color="#ea5b27"></stop></linearGradient><clipPath id="clip-path"><polyline class="cls-1" points="55.43 58.17 55.43 58.16 55.43 58.17"></polyline></clipPath><linearGradient id="Degradado_sin_nombre_10" x1="55.43" y1="58.17" x2="55.43" y2="58.17" gradientTransform="matrix(0, 0, 0, 0, -2474.28, -275.27)" gradientUnits="userSpaceOnUse"><stop offset="0" stop-color="#d9982e"></stop><stop offset="1" stop-color="#c75936"></stop></linearGradient><clipPath id="clip-path-2"><path class="cls-1" d="M66.88,69.7v0Z"></path></clipPath><linearGradient id="Degradado_sin_nombre_9" x1="66.88" y1="69.58" x2="66.88" y2="69.58" gradientTransform="matrix(0, 0, 0, 0, -2451.13, -254.68)" gradientUnits="userSpaceOnUse"><stop offset="0" stop-color="#dfa529"></stop><stop offset="0.23" stop-color="#dea129"></stop><stop offset="0.44" stop-color="#da962a"></stop><stop offset="0.65" stop-color="#d5832a"></stop><stop offset="0.85" stop-color="#cd692b"></stop><stop offset="1" stop-color="#c5502c"></stop></linearGradient><linearGradient id="Degradado_sin_nombre_9-2" x1="31.66" y1="69.5" x2="31.66" y2="69.5" gradientTransform="matrix(0, 0, 0, 0, -2516.06, -254.42)" xlink:href="#Degradado_sin_nombre_9"></linearGradient><linearGradient id="Degradado_sin_nombre_7" x1="60.76" y1="61.8" x2="92.95" y2="61.8" gradientUnits="userSpaceOnUse"><stop offset="0" stop-color="#f7af03"></stop><stop offset="0.22" stop-color="#f6ab04"></stop><stop offset="0.42" stop-color="#f5a006"></stop><stop offset="0.61" stop-color="#f28d0a"></stop><stop offset="0.8" stop-color="#ee7310"></stop><stop offset="0.99" stop-color="#e85217"></stop><stop offset="1" stop-color="#e84f18"></stop></linearGradient><linearGradient id="Degradado_sin_nombre_4-2" x1="28.72" y1="61.76" x2="67.49" y2="61.76" gradientTransform="matrix(1, 0, 0, 1, 0, 0)" xlink:href="#Degradado_sin_nombre_4"></linearGradient><linearGradient id="Degradado_sin_nombre_7-2" x1="48.29" y1="68.08" x2="67.46" y2="68.08" xlink:href="#Degradado_sin_nombre_7"></linearGradient></defs><title>Maxirest</title><g id="logos"><path class="cls-2" d="M313.33,46.83V54.5a.46.46,0,0,1-.48.46c-1.62-.07-5.71,0-7.91,2.16-1.51,1.51-2.27,3.74-2.27,6.73V78.6a.46.46,0,0,1-.46.46h-8.42a.45.45,0,0,1-.46-.46V47.31a.45.45,0,0,1,.46-.46h8a.46.46,0,0,1,.47.46v2.3a.15.15,0,0,0,.26.1c1.24-1.47,4-3.26,10.35-3.34a.47.47,0,0,1,.47.46"></path><path class="cls-2" d="M359.92,78.56a21.46,21.46,0,0,1-5.77-2.27.46.46,0,0,1-.17-.59l2.73-5.87a.45.45,0,0,1,.65-.2,20,20,0,0,0,4.78,2,21.74,21.74,0,0,0,6,.87c4,0,5.93-1,5.93-2.94a2.08,2.08,0,0,0-1.61-2,24,24,0,0,0-5-1,47.53,47.53,0,0,1-6.53-1.38,10,10,0,0,1-4.46-2.75,7.84,7.84,0,0,1-1.89-5.63,8.81,8.81,0,0,1,1.77-5.42,11.22,11.22,0,0,1,5.15-3.68,21.93,21.93,0,0,1,8-1.32,31.35,31.35,0,0,1,6.8.75A19.79,19.79,0,0,1,381.53,49a.45.45,0,0,1,.18.6L379,55.39a.46.46,0,0,1-.63.21,18.52,18.52,0,0,0-8.86-2.16,9.46,9.46,0,0,0-4.49.83,2.47,2.47,0,0,0-1.5,2.16,2.14,2.14,0,0,0,1.62,2.1,29.62,29.62,0,0,0,5.15,1.13,55.47,55.47,0,0,1,6.47,1.41,9.82,9.82,0,0,1,4.37,2.72A7.73,7.73,0,0,1,383,69.3a8.53,8.53,0,0,1-1.79,5.33,11.51,11.51,0,0,1-5.24,3.63,23.56,23.56,0,0,1-8.17,1.28,31.68,31.68,0,0,1-7.85-1"></path><path class="cls-2" d="M407.07,77.17a.45.45,0,0,1-.17.54A9.68,9.68,0,0,1,403.81,79a16.81,16.81,0,0,1-4.16.51c-3.87,0-6.85-1-8.92-2.93s-3.12-4.83-3.12-8.62V40.18a.47.47,0,0,1,.46-.46h8.42a.46.46,0,0,1,.46.46v7.08a.31.31,0,0,0,.31.31h7.2a.46.46,0,0,1,.46.46v6.26a.46.46,0,0,1-.46.46h-7.2a.31.31,0,0,0-.31.31V67.87A4.46,4.46,0,0,0,398,71a3.79,3.79,0,0,0,2.94,1.11,6.5,6.5,0,0,0,3.38-.9.45.45,0,0,1,.65.24Z"></path><path class="cls-2" d="M226,48.08a8.58,8.58,0,0,1,4.19,4.56,21.32,21.32,0,0,1,1,7.27V78.63a.46.46,0,0,1-.46.46h-8a.46.46,0,0,1-.46-.46v-2a.15.15,0,0,0-.26-.11,13.71,13.71,0,0,1-3.84,2.5,11.79,11.79,0,0,1-4.45.81,11.94,11.94,0,0,1-8.48-2.93,9.39,9.39,0,0,1-2.47-3.79,13,13,0,0,1-.67-4.32,10.94,10.94,0,0,1,2.08-6.92,10.05,10.05,0,0,1,1.14-1.22c2.15-1.89,5.13-2.84,8.92-2.84A17.58,17.58,0,0,1,222,59.43a.18.18,0,0,0,.25-.17,8.17,8.17,0,0,0-.51-2.75,4.39,4.39,0,0,0-1.92-2.25,9.86,9.86,0,0,0-4-.72l-7.92,0a.46.46,0,0,1-.46-.46v-6.2a.46.46,0,0,1,.46-.46h8.83q6.11,0,9.24,1.71m-3.71,21.46V66.27a.77.77,0,0,0-.45-.7,13.55,13.55,0,0,0-5.54-1.24,6,6,0,0,0-3.72,1,3.87,3.87,0,0,0-1.39,3.31q0,4.13,4.35,4.13A10.46,10.46,0,0,0,222,70.14a.79.79,0,0,0,.29-.6"></path><path class="cls-2" d="M259.63,78.87l-6.69-9.34a.31.31,0,0,0-.5,0l-6.91,9.36a.45.45,0,0,1-.37.18h-9.33a.3.3,0,0,1-.24-.49L247.47,63a.32.32,0,0,0,0-.37L236,47.34a.31.31,0,0,1,.25-.49h9.63a.47.47,0,0,1,.37.19l6.44,8.87a.31.31,0,0,0,.5,0L259.81,47a.46.46,0,0,1,.37-.18h9.09a.31.31,0,0,1,.24.49L258.05,62.41a.29.29,0,0,0,0,.37L270,78.57a.31.31,0,0,1-.24.49H260a.44.44,0,0,1-.37-.19"></path><path class="cls-2" d="M275.68,46.85h8.43a.46.46,0,0,1,.46.46V78.6a.46.46,0,0,1-.46.46h-8.43a.46.46,0,0,1-.46-.46V47.31a.46.46,0,0,1,.46-.46"></path><path class="cls-2" d="M196,54.72a13.8,13.8,0,0,0-5-6,13.74,13.74,0,0,0-13-1.26,13.24,13.24,0,0,0-3.28,2,.77.77,0,0,1-1,0c-.31-.25-.63-.49-1-.71a13.71,13.71,0,0,0-21.39,11.37V78.58a.46.46,0,0,0,.46.46h8.3a.47.47,0,0,0,.46-.46V60.06a4.6,4.6,0,0,1,1-2.86l.08-.1a4.59,4.59,0,0,1,6.28-.53.39.39,0,0,0,.1.08,4.59,4.59,0,0,1,1.53,3.41V78.58a.47.47,0,0,0,.46.46h8.3a.47.47,0,0,0,.46-.46V60.06a4.66,4.66,0,0,1,1-2.86l.09-.1a4.58,4.58,0,0,1,6.27-.53l.1.09a4.56,4.56,0,0,1,1.53,3.4V78.58a.47.47,0,0,0,.46.46h8.3a.46.46,0,0,0,.46-.46V60.06A13.66,13.66,0,0,0,196,54.72"></path><path class="cls-2" d="M348,54.82a14.91,14.91,0,0,0-5.68-6A17.92,17.92,0,0,0,334,46.41,18.32,18.32,0,0,0,325.08,48a15.74,15.74,0,0,0-6.5,5.56A16.44,16.44,0,0,0,315.84,62a16.19,16.19,0,0,0,1.77,8.68,15.66,15.66,0,0,0,6.11,6.27,21.14,21.14,0,0,0,9.51,2.68,18.58,18.58,0,0,0,15.06-6,.47.47,0,0,0-.05-.65l-4.69-4.08a.47.47,0,0,0-.65,0A9.35,9.35,0,0,1,339.81,71a11.26,11.26,0,0,1-5.91,1.11,10.91,10.91,0,0,1-5.28-1.51,7.1,7.1,0,0,1-2.85-3.4.31.31,0,0,1,.25-.42l23.29-3.11a.47.47,0,0,0,.4-.44A16.22,16.22,0,0,0,348,54.82m-21.71,5.79a.3.3,0,0,1-.34-.34,8,8,0,0,1,2.47-5.13,6.92,6.92,0,0,1,5.34-1.67,7.24,7.24,0,0,1,4.33,1.67,6.28,6.28,0,0,1,2.1,3.46.32.32,0,0,1-.27.38Z"></path><path class="cls-2" d="M285.2,36.67A5.24,5.24,0,1,1,280,31.43a5.24,5.24,0,0,1,5.24,5.24"></path><circle class="cls-3" cx="60.75" cy="61.8" r="60.75"></circle><path class="cls-4" d="M114.76,61.8h.56A54.65,54.65,0,1,1,60.68,7.15,54.64,54.64,0,0,1,115.32,61.8h-2.83C112.44,32.25,90.23,10,60.68,10S8.91,32.25,8.86,61.8s22.26,51.76,51.82,51.82,51.76-22.26,51.81-51.82Z"></path><g class="cls-5"><rect class="cls-6" x="55.43" y="58.17"></rect></g><g class="cls-7"><rect class="cls-8" x="66.88" y="69.47" height="0.23"></rect></g><rect class="cls-9" x="31.66" y="69.38" height="0.23"></rect><path class="cls-1" d="M31.66,69.61v0"></path><path class="cls-10" d="M93.44,78.73V57.9s.5-19-19.77-19h-.1c-6,0-10,1.65-12.81,4,6.52,5.24,6.71,13.9,6.72,15,0-.41.36-6.39,6.78-6.39,6.64,0,6.56,6.56,6.56,6.56V78.73a6,6,0,0,0,6,6h.57A6,6,0,0,0,93.44,78.73Z"></path><path class="cls-11" d="M28.74,57.81v20c0,3.78,2.17,6.83,5.94,6.83a6.82,6.82,0,0,0,6.83-6.83v-20s.15-6.41,6.79-6.41a10.28,10.28,0,0,1,1.28.06c17.1,1.06,17.86,16.64,17.88,18.79l0-12.34S68,38.85,47.72,38.85h-.1c-20.27,0-18.88,19-18.88,19"></path><path class="cls-12" d="M67.46,78.73v-8.5c0-2.16-.39-18.83-19.17-18.83,6.61,0,6.55,6.56,6.55,6.56V78.72a6,6,0,0,0,6,6h.56A6,6,0,0,0,67.46,78.73Z"></path></g></svg>