<svg width="74" height="36" viewBox="0 0 74 36" fill="none" xmlns="http://www.w3.org/2000/svg">
<g clip-path="url(#clip0_120_641)">
<path d="M12.3421 11.6785C12.3421 13.4038 11.6785 14.8636 10.4841 15.7926C9.15702 16.7215 7.4318 17.2524 5.04301 17.2524H3.05235V23.6225H0V6.63556H5.44113C7.82993 6.63556 9.55516 7.03369 10.7496 7.96269C11.8113 8.75896 12.3421 10.0861 12.3421 11.6785ZM3.05235 14.8635H4.64487C6.2374 14.8635 7.4318 14.5981 8.09538 14.0673C8.89158 13.5365 9.15702 12.7402 9.15702 11.6785C9.15702 10.7496 8.89165 9.95329 8.22807 9.55516C7.56448 9.02426 6.50283 8.89158 5.17572 8.89158H3.05235V14.8635Z" fill="white"/>
<path d="M42.6001 18.9776C42.6001 20.4375 41.9366 21.6319 40.7422 22.5608C39.5478 23.3571 37.8225 23.8879 35.6992 23.8879C33.5758 23.8879 31.8506 23.6225 30.5234 22.959V20.3047C31.3197 20.7029 32.2487 20.9683 33.1777 21.101C34.1066 21.3664 35.0356 21.3664 35.8319 21.3664C37.0263 21.3664 37.9552 21.101 38.4861 20.7029C39.017 20.3047 39.4151 19.7739 39.4151 18.9776C39.4151 18.3141 39.1496 17.7832 38.6188 17.3851C38.088 16.987 37.0263 16.4561 35.3011 15.7926C33.5758 15.129 32.3814 14.4655 31.7178 13.6692C31.0543 12.873 30.6562 11.944 30.6562 10.7496C30.6562 9.28979 31.187 8.22807 32.3814 7.4318C33.4431 6.63555 35.0356 6.23738 36.8936 6.23738C38.7515 6.23738 40.4767 6.63558 42.202 7.29913L41.273 9.55516C39.5478 8.89158 38.088 8.6262 36.7608 8.6262C35.8319 8.6262 35.0356 8.75889 34.5048 9.15703C33.974 9.55516 33.7085 10.0861 33.7085 10.7496C33.7085 11.1477 33.8412 11.5459 33.974 11.944C34.2393 12.2094 34.5048 12.6075 35.0356 12.8729C35.5664 13.1383 36.3627 13.5365 37.5571 13.9346C38.8842 14.4655 39.9459 14.9963 40.6095 15.3944C41.273 15.7926 41.6711 16.3234 42.0693 16.8542C42.4674 17.5178 42.6001 18.1814 42.6001 18.9776Z" fill="white"/>
<path d="M60.9145 14.9964C60.9145 17.7832 60.1182 19.9066 58.6585 21.4991C57.1986 23.0917 54.9426 23.7552 52.1556 23.7552C49.3687 23.7552 47.1126 22.9589 45.6528 21.4991C44.193 20.0393 43.3967 17.7832 43.3967 14.9964C43.3967 12.2094 44.193 10.086 45.6528 8.49352C47.1126 7.03366 49.3687 6.23738 52.1556 6.23738C54.9426 6.23738 57.0659 7.03366 58.6585 8.49352C60.1182 10.086 60.9145 12.2094 60.9145 14.9964ZM46.5818 14.9964C46.5818 17.1197 47.1126 18.7122 48.0416 19.7739C48.9705 20.8355 50.2976 21.3664 52.1556 21.3664C54.0135 21.3664 55.3407 20.8355 56.2697 19.7739C57.1986 18.7122 57.5967 17.1197 57.5967 14.9964C57.5967 12.873 57.1986 11.2804 56.2697 10.2187C55.3407 9.15703 54.0135 8.6262 52.1556 8.6262C50.2976 8.6262 48.9705 9.15703 48.0416 10.2187C47.1126 11.4131 46.5818 13.0057 46.5818 14.9964Z" fill="white"/>
<path d="M62.9047 23.6225V6.63556H65.957V21.2338H73.9194V23.6225H62.9047Z" fill="white"/>
<path d="M12.4746 6.50278L18.0485 14.1999L9.15686 26.4094L13.1382 27.6038L20.57 17.5177L31.9831 33.3103L38.0878 35.1683L22.9588 14.3327L33.3102 0L27.2055 1.8579L20.4373 11.0149L16.3232 5.30842L12.4746 6.50278Z" fill="#C00001"/>
</g>
<defs>
<clipPath id="clip0_120_641">
<rect width="74" height="35.1683" fill="white"/>
</clipPath>
</defs>
</svg>
