<svg width="63" height="16" viewBox="0 0 63 16" fill="none" xmlns="http://www.w3.org/2000/svg">
<g clip-path="url(#clip0_2199_396)">
<path d="M1.50208 12.6743V6.03056H0.00378418V3.18618H1.50591V0H4.70271V3.18618H6.95589V6.03056H4.69888V12.6986L1.50208 12.6743Z" fill="#E6D9CA"/>
<path d="M20.637 9.46009C20.637 13.2044 17.8036 16.0014 14.339 16.0014C10.8745 16.0014 8.06531 13.2044 8.06531 9.46009C8.06531 5.71579 10.8706 2.87012 14.339 2.87012C17.8074 2.87012 20.637 5.71451 20.637 9.46009ZM17.416 9.48441C17.416 7.31976 16.035 5.81179 14.339 5.81179C12.6431 5.81179 11.2634 7.31976 11.2634 9.48441C11.2634 11.5991 12.6444 13.0585 14.339 13.0585C16.0337 13.0585 17.416 11.5991 17.416 9.48441Z" fill="#E6D9CA"/>
<path d="M28.2905 15.6813C24.6333 16.0653 22.6951 13.8571 22.6951 10.4328V6.03056H21.193V3.18618H22.7015V0H25.8894V3.18618H28.1413V6.03056H25.8894V10.4572C25.8894 12.2071 26.6876 12.8637 28.2866 12.7613L28.2905 15.6813Z" fill="#E6D9CA"/>
<path d="M32.5048 10.7005C32.9166 12.2366 34.128 13.1801 35.6302 13.1801C36.6949 13.1801 37.7367 12.7179 38.2697 11.7207H41.6846C40.959 14.2809 38.7517 16.0014 35.6544 16.0014C32.1414 16.0014 29.2595 13.0828 29.2595 9.46009C29.2595 5.8374 32.1414 2.87012 35.6544 2.87012C39.3357 2.87012 42.3872 5.73883 41.9269 10.7005H32.5048ZM38.753 8.07373C38.3705 6.61442 37.154 5.69018 35.6289 5.69018C34.1752 5.69018 33.0123 6.61442 32.552 8.07373H38.753Z" fill="#FF4235"/>
<path d="M51.8578 14.5417C51.034 15.4173 49.7754 15.9498 48.0323 15.9498C45.3915 15.9498 42.97 14.6121 42.97 11.8881C42.97 9.07184 45.3188 8.33835 48.0808 8.09513C50.1644 7.90055 51.641 7.65733 51.641 6.63581C51.641 5.97912 50.793 5.44404 49.3648 5.44404C48.2261 5.44404 46.9178 5.95608 46.6271 7.02496H43.429C43.744 4.64269 46.0201 2.86719 49.2947 2.86719C54.357 2.86719 54.7447 6.14937 54.7447 7.14657V13.6636C54.772 14.3598 54.8943 15.0489 55.1081 15.7117H52.1753C52.0171 15.338 51.9103 14.9444 51.8578 14.5417ZM51.7608 9.67733C51.0825 10.1151 50.0419 10.334 48.7336 10.48C47.1588 10.6502 46.1897 10.992 46.1897 11.9137C46.1897 12.619 47.0135 13.1054 48.2975 13.1054C50.2103 13.1054 51.7608 12.4488 51.7608 10.8448V9.67733Z" fill="#FF4235"/>
<path d="M62.9961 15.6813C59.339 16.0653 57.4008 13.8571 57.4008 10.4328V6.03056H55.9025V3.18618H57.4046V0H60.6014V3.18618H62.8546V6.03056H60.6014V10.4572C60.6014 12.2071 61.4009 12.8637 62.9999 12.7613L62.9961 15.6813Z" fill="#FF4235"/>
<path d="M1.49316 9.40869C1.49619 10.2772 1.84122 11.1093 2.45299 11.7235C3.06477 12.3376 3.89365 12.684 4.75882 12.687L6.94825 12.696L6.9559 15.9667L4.76774 15.9577C3.90257 15.9547 3.07369 15.6083 2.46192 14.9941C1.85014 14.38 1.50512 13.5479 1.50209 12.6794L1.49316 9.40869Z" fill="#FF4235"/>
</g>
<defs>
<clipPath id="clip0_2199_396">
<rect width="63" height="16" fill="white"/>
</clipPath>
</defs>
</svg>
